<?xml version="1.0" encoding="utf-8"?>
<svg viewBox="0 0 200 100" width="200px" height="100px" xmlns="http://www.w3.org/2000/svg">
  <path d="M0 0 C3.68739205 2.8243854 4.81452576 4.29287945 6 8.8125 C6.45227401 15.67414286 3.1956742 21.75540725 -1 27 C-6.7651715 32 -6.7651715 32 -11 32 C-11 32.66 -11 33.32 -11 34 C-9.78792861 33.27706402 -8.58056971 32.54622688 -7.375 31.8125 C-6.63507813 31.36390625 -5.89515625 30.9153125 -5.1328125 30.453125 C-3.17644927 29.12021818 -1.8370847 27.79213722 -0.25 26.0625 C4.24443845 23.21026022 7.10479993 24.01400468 12.1640625 25.14453125 C19.24687587 27.28108239 23.26795709 31.83610977 27 38 C28.35454942 41.27943544 28.31119202 42.98355215 27.28125 46.34765625 C23.92111904 54.30396636 18.40841471 58.5813855 10.6328125 62.05859375 C5.86254035 63.78348454 1.06195682 64.71238882 -4 65 C-5.1034375 65.07605469 -6.206875 65.15210937 -7.34375 65.23046875 C-16.72640855 65.58910343 -24.60583329 64.40577811 -33 60 C-35.88907381 57.07938609 -36.70145175 54.14048949 -37.625 50.1875 C-37.86476563 49.19105469 -38.10453125 48.19460937 -38.3515625 47.16796875 C-41.15280516 33.48237961 -42.80218043 15.13125044 -37 2 C-34.0939585 -2.18811863 -30.61199556 -4.20431538 -25.79296875 -5.625 C-17.16059815 -6.78403158 -7.18700629 -5.09301434 0 0 Z M-14 -3 C-12.03900793 -1.03900793 -10.58889942 -0.19010991 -8.125 1 C-7.44695312 1.33 -6.76890625 1.66 -6.0703125 2 C-5.38710937 2.33 -4.70390625 2.66 -4 3 C-2.66574459 3.66481931 -1.33213645 4.33094492 0 5 C-2.86097158 0.92861736 -5.36027412 -1.16344184 -10 -3 C-11.32 -3 -12.64 -3 -14 -3 Z M-19 10 C-19 11.32 -19 12.64 -19 14 C-17.68 14 -16.36 14 -15 14 C-15 12.68 -15 11.36 -15 10 C-16.32 10 -17.64 10 -19 10 Z M7 27 C7 27.66 7 28.32 7 29 C7.61488281 29.18175781 8.22976562 29.36351562 8.86328125 29.55078125 C10.07564453 29.92783203 10.07564453 29.92783203 11.3125 30.3125 C12.11300781 30.55613281 12.91351563 30.79976562 13.73828125 31.05078125 C16.09964573 32.04182023 17.33879993 33.08074943 19 35 C19.66 34.67 20.32 34.34 21 34 C16.43966604 29.66768274 13.1796648 28.17200539 7 27 Z M-9 42 C-10.33333333 45 -10.33333333 45 -9 48 C-7.68 47.67 -6.36 47.34 -5 47 C-4.67 45.68 -4.34 44.36 -4 43 C-5.65 42.67 -7.3 42.34 -9 42 Z " fill="#1D8AFA" transform="matrix(1, 0, 0, 1, 107, 20)"/>
  <path d="M 0 0 C 1.211 2.113 1.211 2.113 2 4 C 2.762 3.711 3.524 3.423 4.309 3.125 C 16.2 -1.151 24.739 -0.707 36.488 3.996 C 43.696 7.497 47.052 12.839 50.375 19.938 C 51.865 27.241 51.588 33.489 48.195 40.215 C 47 42 47 42 44.688 43.563 C 35.693 45.027 26.581 43.136 19 38 C 18.34 38 17.68 38 17 38 C 18.391 38.821 19.788 39.632 21.188 40.438 C 22.353 41.116 22.353 41.116 23.543 41.809 C 28.658 44.289 33.725 44.127 39.313 44.063 C 40.053 44.058 40.794 44.053 41.557 44.049 C 43.371 44.037 47.838 50.06 49.653 50.041 C 53.611 55.054 51.608 57.906 48.625 65.5 C 47 68 47 68 45 69 C 39.669 69.454 39.669 69.454 37.25 67.813 C 35.757 65.648 34.869 63.475 34 61 C 33.051 61.351 32.103 61.701 31.125 62.063 C 20.93 64.876 10.491 60.507 1.57 55.688 C -4.877 51.405 -7.61 45.17 -10 38 C -10.143 36.358 -10.22 34.71 -10.25 33.063 C -10.276 32.208 -10.302 31.353 -10.328 30.473 C -9.927 27.452 -9.138 26.153 -7 24 C 2.824 20.826 16.675 21.973 26 26 C 26 25.34 26 24.68 26 24 C 20.675 22.742 15.504 21.948 10.027 21.926 C 9.149 21.915 8.271 21.904 7.366 21.892 C 5.605 21.881 3.843 21.902 2.083 21.957 C -1.641 21.916 -4.039 21.873 -6.869 19.302 C -10.376 14.718 -13.289 10.255 -13.25 4.375 C -13.255 3.599 -13.26 2.823 -13.266 2.023 C -13 0 -13 0 -11 -2 C -6.884 -3.982 -3.774 -2.027 0 0 Z M -10.875 1.5 C -11.246 1.995 -11.617 2.49 -12 3 C -8.888 3 -6.058 2.544 -3 2 C -3 1.34 -3 0.68 -3 0 C -7.257 -0.407 -7.257 -0.407 -10.875 1.5 Z M -4.187 27.063 C -6.329 28.948 -6.329 28.948 -6.25 32.188 C -6.167 33.116 -6.085 34.044 -6 35 C -5.34 35 -4.68 35 -4 35 C -4 33.02 -4 31.04 -4 29 C -2.35 28.34 -0.7 27.68 1 27 C -1.91 25.642 -1.91 25.642 -4.187 27.063 Z M 43.875 61.875 C 41.779 63.778 41.779 63.778 42 66 C 42.99 66.33 43.98 66.66 45 67 C 45.99 64.69 46.98 62.38 48 60 C 45.778 59.779 45.778 59.779 43.875 61.875 Z" fill="#1C89F8" transform="matrix(1, 0, 0, 1, 148, 17)"/>
  <path d="M 0 0 C 0.904 -0.029 1.807 -0.058 2.738 -0.088 C 9.893 -0.155 16.384 1.157 21.75 6.188 C 23.11 9.078 23.687 11.09 23.75 14.313 C 21.963 18.705 20.833 20.606 16.875 23.188 C 11.161 25.235 4.752 25.071 -1.25 25.313 C -0.895 25.901 -0.54 26.489 -0.174 27.096 C 3.591 33.85 4.474 39.15 4.25 46.813 C 4.254 48.265 4.254 48.265 4.258 49.746 C 4.158 57.16 3.265 64.629 -1 70.875 C -4.165 72.897 -6.503 73.248 -10.25 73.313 C -14.739 72.145 -16.787 70.042 -19.125 66.188 C -23.803 55.85 -21.796 43.419 -18.906 32.852 C -18.125 30.265 -18.125 30.265 -18.25 27.313 C -19.096 27.624 -19.941 27.936 -20.812 28.258 C -32.556 32.288 -32.556 32.288 -39.25 29.313 C -41.736 27.137 -42.147 25.766 -42.875 22.563 C -41.55 15.673 -35.083 10.586 -29.562 6.629 C -20.39 1.407 -10.341 0.109 0 0 Z M 9.75 4.313 C 9.75 4.973 11.488 5.837 11.488 6.517 C 13.131 7.554 13.062 8.348 14.75 9.313 C 17.11 11.672 17.241 13.091 17.75 16.313 C 18.41 16.313 18.048 14.473 18.728 14.473 C 18.584 12.14 19.606 11.693 17.453 7.734 C 14.79 5.44 13.324 4.313 9.75 4.313 Z" fill="#1D8DFD" transform="matrix(1, 0, 0, 1, 43.25, 13.6875)"/>
  <path d="M0 0 C1.2109375 2.11328125 1.2109375 2.11328125 2 4 C2.55945313 3.77183594 3.11890625 3.54367188 3.6953125 3.30859375 C14.94936191 -0.72621818 26.31940748 0.96362304 37 6 C41.12374558 8.08351163 42.9982891 10.03904815 45.25 14.0625 C45.75015625 14.94035156 46.2503125 15.81820312 46.765625 16.72265625 C48.92684059 20.70996223 49.19218921 23.2117244 49.25 27.8125 C49.27578125 29.03582031 49.3015625 30.25914063 49.328125 31.51953125 C48.8860432 36.20875609 47.28046817 38.71953183 44 42 C38.11272745 42.65414139 32.48005169 42.36975208 27 40 C27 39.34 27 38.68 27 38 C26.01 37.67 25.02 37.34 24 37 C24.66 34.36 25.32 31.72 26 29 C25.01 28.67 24.02 28.34 23 28 C25.49092811 26.75453595 26.41080733 27.2232422 29 28 C29 26.68 29 25.36 29 24 C28.08476562 23.79503906 27.16953125 23.59007813 26.2265625 23.37890625 C24.44378906 22.97478516 24.44378906 22.97478516 22.625 22.5625 C20.84996094 22.16224609 20.84996094 22.16224609 19.0390625 21.75390625 C16 21 16 21 14 20 C12.54520793 20.02165944 11.09103463 20.10385434 9.640625 20.21875 C-4.59201274 21.03658079 -4.59201274 21.03658079 -8.62109375 18.0703125 C-10.11544415 15.7374862 -11.14160872 13.62734126 -12 11 C-12.33 10.34 -12.66 9.68 -13 9 C-13.12005453 7.50350638 -13.17531451 6.00125207 -13.1875 4.5 C-13.20167969 3.7059375 -13.21585938 2.911875 -13.23046875 2.09375 C-13 0 -13 0 -11 -2 C-6.88354409 -3.98199729 -3.77402594 -2.02679171 0 0 Z M-10.875 1.5 C-11.24625 1.995 -11.6175 2.49 -12 3 C-8.88772805 3 -6.05847848 2.54372951 -3 2 C-3 1.34 -3 0.68 -3 0 C-7.25731568 -0.40749675 -7.25731568 -0.40749675 -10.875 1.5 Z " fill="#1D8DFD" transform="matrix(1, 0, 0, 1, 148, 17)"/>
  <path d="M0 0 C0.66 0 1.32 0 2 0 C2 2.31 2 4.62 2 7 C1.01 7.495 1.01 7.495 0 8 C-0.99 7.01 -1.98 6.02 -3 5 C-1.68 5 -0.36 5 1 5 C0.67 3.35 0.34 1.7 0 0 Z " fill="#1583FB" transform="matrix(1, 0, 0, 1, 150, 41.00000000000001)"/>
</svg>